<?xml version="1.0" encoding="UTF-8"?><svg id="uuid-58849efb-c729-4553-8e26-3c855b792b17" xmlns="http://www.w3.org/2000/svg" viewBox="0 0 257.2 429.7"><path d="M98.9,427.6c-16.4-.3-33.4-1.1-49.7-3.1s-6.1-.6-7.2-1.2-2.4-4.4-2.7-5.9c-1.1-5.3-1-20.9,1.7-25.5s1.1-1.6,1.9-1.6c12.1.9,24.1,1.2,36.2,1.6,35.4,1.4,81.4,6.8,110.4-17.9s26.2-67.4,1.2-89.9c-18-16.2-43.1-20.1-66.6-20.7s-1.2-.3-1.9-.3c-10-.7-21.3.9-31.2,0s-11-17.7-9.3-25c3.1-13.8,16.3-7.3,26.4-8.6,27.1,2,60.1-.5,78.7-22.9,16.6-20,15.9-54.4-4.4-71.6s-71.6-17.1-101.9-12.4c-9.3,1.4-20.5,2.9-29.3,5.9s-5.8,2-6.2,3.6v184.3c0,3.8,2.7,6.5,6.5,6.8,40.5,0,81,0,121.5.3,9.5,2,5.2,16.5,2.1,22.4-5.5,10.3-13.3,16.7-25.6,16.2H10.3c-4.5-.6-8.1-4.4-8.3-9V6.6C2.9.7,8.7,1.9,13.1,2.7c20.7,3.9,30.9,21.3,31.9,41.3s-.5,27.1,0,40.5c.4,3.6,3.7,6.4,7.3,6.1s9.2-1.6,13.5-2.1c22.5-2.9,45.4-3.9,68.1-3.1,32.1,1.1,62.7,6.6,86.9,29.1,23.6,21.9,28.5,60.5,13.5,88.6-10.1,19-28.4,32.7-48.4,40v.6c3.4,1.3,7,2.2,10.5,3.5,33.9,12.5,57.2,40.5,58.9,77.2v8.4l-.5,6.1c-2,19.9-10.6,38.6-24.1,53.1-26.1,28.1-73.5,34.8-110.1,35.2-.4,0-1.1-.2-1.3.2-6.8,0-13.6.1-20.4,0Z" fill="#fff" stroke="#d3d3d3" stroke-miterlimit="10" stroke-width="4"/></svg>